<mxfile host="app.diagrams.net" modified="2023-08-03T16:16:48.433Z" agent="Mozilla/5.0 (Windows NT 10.0; Win64; x64; rv:109.0) Gecko/20100101 Firefox/115.0" etag="Fjw1xIwoHpnLm97PrR8A" version="21.6.6" type="github">
  <diagram name="Page-1" id="4ZCYVXNfwt_bql2Io-Zv">
    <mxGraphModel dx="1434" dy="774" grid="1" gridSize="10" guides="1" tooltips="1" connect="1" arrows="1" fold="1" page="1" pageScale="1" pageWidth="827" pageHeight="1169" math="0" shadow="0">
      <root>
        <mxCell id="0" />
        <mxCell id="1" parent="0" />
        <mxCell id="H8CEIzqAk9dEc6fAlXC8-1" value="" style="shape=image;html=1;verticalAlign=top;verticalLabelPosition=bottom;labelBackgroundColor=#ffffff;imageAspect=0;aspect=fixed;image=https://cdn1.iconfinder.com/data/icons/electronics-glyph-24/24/refrigerator_electronics_freezer_fridge_household_appliance-128.png" vertex="1" parent="1">
          <mxGeometry x="50" y="110" width="128" height="128" as="geometry" />
        </mxCell>
        <mxCell id="H8CEIzqAk9dEc6fAlXC8-2" value="" style="shape=image;html=1;verticalAlign=top;verticalLabelPosition=bottom;labelBackgroundColor=#ffffff;imageAspect=0;aspect=fixed;image=https://cdn1.iconfinder.com/data/icons/unicons-line-vol-5/24/robot-128.png" vertex="1" parent="1">
          <mxGeometry x="60" y="238" width="128" height="128" as="geometry" />
        </mxCell>
        <mxCell id="H8CEIzqAk9dEc6fAlXC8-4" value="" style="shape=image;html=1;verticalAlign=top;verticalLabelPosition=bottom;labelBackgroundColor=#ffffff;imageAspect=0;aspect=fixed;image=https://cdn0.iconfinder.com/data/icons/phosphor-duotone-vol-3/256/robot-duotone-128.png" vertex="1" parent="1">
          <mxGeometry x="190" y="238" width="128" height="128" as="geometry" />
        </mxCell>
        <mxCell id="H8CEIzqAk9dEc6fAlXC8-5" value="" style="shape=mxgraph.signs.transportation.truck_6;html=1;pointerEvents=1;fillColor=#000000;strokeColor=none;verticalLabelPosition=bottom;verticalAlign=top;align=center;" vertex="1" parent="1">
          <mxGeometry x="60" y="390" width="79" height="98" as="geometry" />
        </mxCell>
        <mxCell id="H8CEIzqAk9dEc6fAlXC8-6" value="" style="shape=mxgraph.signs.food.food_truck;html=1;pointerEvents=1;fillColor=#000000;strokeColor=none;verticalLabelPosition=bottom;verticalAlign=top;align=center;" vertex="1" parent="1">
          <mxGeometry x="170" y="400" width="98" height="50" as="geometry" />
        </mxCell>
        <mxCell id="H8CEIzqAk9dEc6fAlXC8-7" value="" style="shape=mxgraph.signs.transportation.truck_1;html=1;pointerEvents=1;fillColor=#000000;strokeColor=none;verticalLabelPosition=bottom;verticalAlign=top;align=center;" vertex="1" parent="1">
          <mxGeometry x="290" y="400" width="99" height="51" as="geometry" />
        </mxCell>
        <mxCell id="H8CEIzqAk9dEc6fAlXC8-8" value="" style="shape=mxgraph.signs.people.man_2;html=1;pointerEvents=1;fillColor=#000000;strokeColor=none;verticalLabelPosition=bottom;verticalAlign=top;align=center;" vertex="1" parent="1">
          <mxGeometry x="81.5" y="510" width="36" height="99" as="geometry" />
        </mxCell>
        <mxCell id="H8CEIzqAk9dEc6fAlXC8-12" value="&lt;div&gt;possibili &lt;br&gt;&lt;/div&gt;&lt;div&gt;icone da usare.&lt;/div&gt;&lt;div&gt;&lt;br&gt;&lt;/div&gt;&lt;div&gt;Si possono anche&lt;/div&gt;&lt;div&gt;importare immagini&lt;/div&gt;&lt;div&gt;e/o diagrammi fatti&lt;/div&gt;&lt;div&gt;con excalidraw&lt;br&gt;&lt;/div&gt;" style="shape=note;whiteSpace=wrap;html=1;backgroundOutline=1;fontColor=#000000;darkOpacity=0.05;fillColor=#FFF9B2;strokeColor=none;fillStyle=solid;direction=west;gradientDirection=north;gradientColor=#FFF2A1;shadow=1;size=20;pointerEvents=1;" vertex="1" parent="1">
          <mxGeometry x="414" y="206" width="140" height="160" as="geometry" />
        </mxCell>
        <mxCell id="H8CEIzqAk9dEc6fAlXC8-13" value="" style="shape=image;verticalLabelPosition=bottom;labelBackgroundColor=default;verticalAlign=top;aspect=fixed;imageAspect=0;image=data:image/png,iVBORw0KGgoAAAANSUhEUgAAANUAAAAyCAYAAADLAZ65AAAAAXNSR0IArs4c6QAAAARnQU1BAACxjwv8YQUAAAAJcEhZcwAADsMAAA7DAcdvqGQAADYYSURBVHhe7Z0HnF9Vmfef6TUzmcmkN0ghRSCQhKq0ICjBAgoiVVDpC7iCimABkRVlxbquH5HXssIurguui4CAVOkgBElPSELqZCZTkul1f9/n3DPzn5oJJODy8gyHe//3nnvOc57+nHvuSdq0SdM77V14Q5CWlpacmXV0dJgNRklVDfU7dQyX3oV3JqQnxzcMyEdapwSlR+lISnu/xXQvSOA7R59RmLT0QcpbrEmd4kN/9H2r8fj/EXZZqWBKelp6KOnpbnXTsL4q6dZhGV2lrd9ina2qK+VSnXeUUiXH/7PgSvhOgjCet8OG9Bv+BSvXE6KFQ5mwvOGcY/BMnR3tlpmRZlkZGZYhZcvOyVI7HdbYUG8N9XXW0tpk6bqXmZUjdcpSgxlqIMNV8Y2LJHgOJgy0u2tt73lLPhi+A8HQn4m84wh/+LUrY9qVuv3JybsgGvavVH3zAw9h9JeekW6ZmZnupTKkJDlZmZadmW5FwwqttEhl+DArLiq2vLwcy8rKkELtsOqqSquu3mZr1q216to6a26XIqVlW2d6lvu0CJ0d6lQ8HZixva93BlwF/T/DtYHaCv0xDrWSXBms790DCKL3sEv9hDHuCoQcT+MTj3YF+hv/QEb2zSiV0yGlr9ie4y2AL4NBrJ+KQ7yW2u7bARmlxSOuS85TAOGm6DQp4ElBkbKysrzk5GRbQR4lx0aWFltJYZ6NKC6waVP2stEjimxU6TA/lhbl2sjhBTambLjl5+dYhpSypbXN5NzUE+EkFhXiqCRE6p8u/V1Mrd/7PrnMwMyBAXjV0EIADEe/3ewGcAGA6eqzN+MHFISEHs6PISGGoIUzBHSoSkX/XaXrWrieKrgRBsR3iIAxTOWNGzf1A86h38GVyvmm+pSIS2hDY04iqaECtd/caHrCwErlBasRzoWvDxbvk6PQrqAgz4qKhllJcZGVlQ63iePGWFlJsQ0rLNT1QkuHaO2tltHRZoXZ2VZWWCClK7Cy4hIrkSdLS8+0huYWa25r0znKqixLdTuYyPAR0ncoffmXXBBqTlSdpiuUbKhvsLZ2haFS2oaGBg9VMQKtrcrjaER1R44caTNmzLB21aurq/O6QAxr+3S1GyG0Di3TFCpniE5FVltb6+POFo2i1wU6JVw7duyweoXOGZkKqV05Bseu+24QNmiwacsmKxleklxPhU4bMWKEtbQ026hRo2zixIkulAj1zFmz/Pnq6hqnD+e7C2ifcRIlwANwbmhs9PEXFBQoXWhwmmQpAqqsrPQjOGzfvl1ylxMaSYEwZpQx4MixWXIFjZuammXE83VN/QyipG/WQPSGAZQqCnJQKhBMl9BnyzsNU5hXLEUaPrzYSktLbIQUqrgg34rksbIUGmbowaptVVaxeZNt3bDBNq1da3m6NmnUSCstHGaFefmWm51jhcNHWJbOJTHW2Nxo23dst5a2Fiei96n+wYHSzdRgSZ2UusZ5R3uHtYuQ+WprRFmZHX3UUXb88R+wOXMOkMC0WG1Nrb3//e+3ffbZx5YsXmzHHX+8feYzn7FNGzfa6tWvKUzNcwEOnnIPA6g73p2WJSGaPn26LVhwjGg53Gpqql3AI0yYMMFO+fjHbMbMmbZRuCKAQ4OguvX19a6UhOK5ubnhVgLQE+Hmfrvod9BBB9m3/umf7Omnn3Zef+Mb35DxGWUvvfRXGaQ2nggPpsAbFUQUt7i42I+zpLztEvjGxibJ1TA3fnXC+7DDDrWDDz7Y9t13X+9ny5YtrnQ8w28MTIZkDSVsk1FGaQDqQKdDDjnEJk2aJPksddrxHOWtgr49uQCHAvMpKFSmrGVeXq4r03A80rACWYFcVwIUqa2hyZp31FtjzXZrq2+0DlkJmQzrbGy28rXrbNHTz9raJcusrlzWp63DcvXMxDFjbdY+023s2DGWr/ZyFEamqS9CHQwLdKD/iE9PQMFC6IZizZdg/JME40aVD3/4w3beeefZ4YcfbrnC+b06vve97xUDMRZpVidhem3NGj0pVfK8KsM91ZsBRCzoTG88u4G+sbooFAJx2GGH2RVXfM4uuvBC23vvvZNaAU477TS77PLL7PTTT3ePtkugfjAil15yiZ1xxunJxW6ISlVbu92FEFw4wuNtMojr12+Ql6ru9vAa2e7wVsFjSFakCMcdd5wbO5QXY40nAo+TTz7J+YbBe+211+RtmlwhwA8cQIfzWbNm25lnnmmnnnqqWg7GFu+/cOFCGz16tPpodZ4feeSR3jcphg/lLYAekuTEVgkEDANAUhhsgdxofn6e5UmRYl1KloSxXcrT7krUYmktrZbV3mmFmdlWlJNnw+SV0lvabUdlla18dYmteHWxbV73ujXX1Rs+aZjanjZtmu1/wBwrKRthrQr/OtUnoZhblx6UEF6Rt8llcjs8JwwaO2aMXfPla+yyyy7z8tSTT3ob3//+9+3Xv/61nyMoufJORcOKfKytIr63RZ/6Q9hgZIcY16xxYfGbZElhZOwvnosAqtMkT5BjOSoBOV1ralQbjeovzdrVfovqcJ3M0Q2GxoRlxpKCT6nCsAMOOMCFjt+E0PPnz5eFLnfhRiDwqOCFQGIU8GyQplGhU2trix+5R+hE3alTp9qZZ50lZZ3i97Kzs3w8CC99wDu8Ibgwprb2Nj3f7gpcUlJiZcKJ8Am88XR40VZ5fsaMEmAchmr96QPvki1ZAK9PfvKTNlohJ3iiCNxvF+54sClTptqLL75oa2T08DIbN25wnCq2bvW+4RFeDO9KKA+deR5cpsnzQ9cnxfeXXnrZNitamjdvno8HYunxtwT6hH+JfAkHmK9EXuEZnoR4NkdE8RgbAZEyIYCZWH8pUoHqlUlQJ44abRPkgaYoRp86aaJNkxuepvNpe02WPBGn19qWim3WkibvkJtvbSJGh1x5p0qa2m6SABIOZLn3CBYyEqOzMygZROwCnWbpucMPO9wF5/77/2Qb1q+3FStWeNgAsVG4qVOm2F/+8hc74n3v87Dj1b/9zcOE2bNn27p16zz/mDBxgp177rnOvP3229+9xAknnGAHH3Sw51+bN22yfd/zHvvYxz5mE8aPdyt42OGH2V4a2+bNmyWwtS7YH/nIR+zT553r9WbMnOFCvW1bRYKwiC6cCqU4c+bsb3kSWBRkr732tj//+c8+tvcJx8NlZTepP/B/7rnnvF36O/fcT9lpnzjNpsoQ7dhR54J35plnaYzHSmCn2SmnnOJjOkph8F6TJ1uZBG/8uHHeFjkwYzrjjDPcS2IsV65caTMVYs6bO88efuQRNyIf+MAHFI7vsAcffNAKCwrtmAUL7IILLrSjjj7aZqntLRorYVoMu3YGcAsWorw1NTW2dWu5lGatwt9ptnTpUtssPoVweJrL24sv/tUNADzhNwr5wQ9+0D0pRgMZWL58uV+vqKiwDUozkMfDDj3U6fTyyy97KJifX+BjQxYwJsFZ7HnoYWqwAk6CRGZBFOSaZbGiEmEtsTD5KjBg3euvW5uUanTpCCnUGJs4crSNGV5qRdm5li+C5KrkSOgpM8T0g+bOtfdooHUiTrkY3SIFapGl7ZBVHzN+nI2VsJLhEGtHIgTF4jweA3Qo4QWnajHqyaeetBJZ/pv/+WY7++yzbX8pBRaO+ngBcpMCEblejELIeYbw4PzPnm+TpfgQ/YgjjnBhGzN2rM2dN9dGjxntwn/UUUfapZdeYpMkpIQr559/vp0ma3ugxjJFyopA77fffk63L3zhKvviF74gj57vXgYBJxwdPXqM943FZTIF4cAztMhrPP/8C07nI454nx/fr9CInG+t8lGMWOBBk1tdhp8vZSDMIYTCWpfKEh95xJF+jUkYhL2iYqtPACDEHEvFny/Li2MkyDXxkijo8cox8Ra8KoGWKDUGlDq0fa7C6E9/+tPy7MOc39Dn69d93RU/hRWDgnNOvGLSoF0ecfPmLfLe8oK6QbSAAnH/qKOO9jzzs5/9rH3zhhu8X7wXuIwVT5BBooS/PPmEG0LwzFMuHeWUWeXqqirHk/ahNV62R3TxFkC//htBZLAgivJAaLwGloFzPAmWzONdDWi4Bj66rMzKSqRMsmy5WdmWrbqZkjI9oZyLCYzwfqtESfk4EWjc2HH+bIvagGgtUkymf2E2/RKigENP6OmleD4K3WOPPWa3fPcWDxuIya+59hrbb9/9XHirRGgYmiVPRrvBAmbYt2+6ySq3VXZ5LHIvLCde7IknnrAnHn/cHpb3eHXxYp8Rg+EIH88/Iqv++c9/3u68804bL0MwZ84cCdoRduihh9mfH37Y87svSLke1vl8KcNMCbtLofDHmhLzh9m+Tsf5dRmnQw45VDjv68L8qMazQ4rOcJlIaRaNnn/+eXvooYfsj3/8o3vhvffey8bJCxG6NUmI7rnnHvvUpz5lv/jFL+VlHnL+EALfddddPhkyQ3nWM888Y3/T+JYtW2a5ObnuzWIYB9+hL4KPgoEHxmLVqlX2la98xW785jft3xRGwyNC9qECbTEhUl5e7rRDwLs52+nKkSWZYZx41J/+9Kd29ZevdoXAO+OhoPPSJUvccE2bOt1xIHogxIZGKA7GnryZ/jBcGCzGE8Pdtwp6KpWQA0GQysrMUiw63IYpZCBOJeFHoBoVwyIUEAACEVKMUWLY1KDrYjzzClm4bAm8K6MYlqkBZ4twLtgiHpYFy5cjZWDaFIEi/sX6oKxxJqitS7ECQcAteNOegKVDuV56+SUX5p/97FYn+IJjF9gY5VkIVJyOhfhlMgDU3ygGEjrAIPrcR4K/WDlfkYwEXuC9ssb777+/jyFOcTMm6EMIhBcAbxQU64jhAWfGsU3jYnqYsBDmFqp9xgIeCBWTIwgahgEFIYzbZ5/p9j55K4TpN7/5TcKPdA+JEe7jjz/OTvroRz2foB1IAy9oB3j11Vd13uZjwcKDF3SnDgoCFcGd8XLtN7ffboslqK06ZyoaJQ9CGJQKLw3Ptm3b5nzBE5TL+sOzSM+hAPQDFxf83DxvOxVQGkJ4PDm0wCsT9j2vsJfQdZjSCt6J4v0hCnyAtjwHfaAleMfZaSbUkBLOiUpc+RCetwh6eSqRXVpB0jiqbISNYxq8eJis4Wh5I0KpDquVII2VEk1WnsRkQxvJbHvIe7ZWVNp2DaBVTE4TUfIUbg0rGi5PkitL22pVNbVOuEwROZ1ZNwlXkwi0TRassnKrbdq8UcK6yd99MauIgLD8CXr0RxPCP4QDC4XiwKxVyhFWv7balRIPwoRElYQCwvrw1BCCDONgMtaPiYJDlPwSOixfsdwOVLh4tPKHO//jTp9NrNeztI0yUDxhFyAstMssGgZGVLAcKQSJMeFlTV2tT+0SjpFvuUWW8DAUvCttISh4LTxiUVGx7SvvSp4TLSt1eV8EPtOn72M/v+02+853vuMKzQQNEHMbcCQcapCCYyxceTVePASKwdhfeWWRXfPVa+zrN3zNHnjgAa8HQAuepw7PcY6xw9MTeqFchLOEmqOUN2NE3ghET5LKT/omp1qvXJh3ZkQUALSpUf8YtPHjJzhN8Ey9gfAVr7xWxgwjSqhLe5MmTXacq6urnFdvFfTpCZSZ1R5dVmrjykqsuCBXgpknS6t4uENWUWWmku9ZYnCuLATT6JVbyl2pmppbbf2GzbZs+UpZwGX28qJXbZPuLV2+QnHw03b33f8tRj5ki15eZNVbKy1DClEoCzRl8kSbMGGcFRRJIBrrFA83iJGjLC2dMJT3JCFMckho6niKmJlSXjwlCfhXrr3Wrrv+eg+7yC0QiPqGelcarHd8iYrHRRnxCIRCoyUkp37iE/bCCy/6bzwf984971z7htrba6+9hIs8L/1KGjh3bDRovATWEM+3dOkyW7z4VTv22GPt29++yW6+6WaFg4c6HitXrnIG8yyKxzMwOljxTFu1erV7OASaiQlmFb0LFbxOg8YBXieddJJdfvll7nloF2/P8/RPqM5kDc/Q7pYtm23K1Ck+E0rOuEQG5KKLLrZbf3qr3XjdjU4nxsazLtiKIlB8vALjBEemtTFYX/rSl+ybCv/OOPNMV2jeYb0RQDFcaUU3Qlo8DV4SRUP5UYoZM2Z6WEsujOdiImP27FnOQ+r6KwDV5yUvfIQx4ErUwHs5xsTMJrPVRBTM3ibSE/iXUvYE9Jj9I3SjG5Yd7TtjmhVmpllza5MVFBdaelaGwqWNEvhWO+q9R0oZcm3N4qVWKC80Ut4oA6w1YF62binfatvkterEyHZ5DLzbOuUNOTl5lpGVo1CyUIOUt8B7ba+x7eqjtqXBahrl+VokTE0tlivhQJAQKwgPZvHo5/pjFg1FIbzEkqIITKrU1NbYo48+6rkHVo4ZLPICZoEIa2kBAeMazMGa1wjvP/zPH3w2CWYjTJU6r5SFf/6FF3yK/RG1SeiBAPIsEwkjRpT6uzusIV5vyZKlLqQwHuF79tlnPb+JCsM9wipwHTmyTP2s8bCNdplcwCtFD4KAEUaukOdCuJg6J39dqnwIL7JVoRjWHUFFKJ977ln30J7zSuHIU+mLZxn7o48+4n0ya4hSPv/8c55zQTtoQO6IcCK8S5Ys9ucwMhs2rHfFwiCR/91xx+3+HolIYkiAxU0AfhBuwjP4sElCjxcFUHzGw6sRZjcZIwYGWjGTx6sLDNPw4SUhnxf/kRF4R6TAuEtKgydlxnrJ4iW26JVXnCbQCCWifwdwogiJFPSGBDtTxh4LapnyxgZPGjfSDp4z27LbG62iodYKFQZWbN8hj7PKWpvb7JLPXGylOQV2752/s0LFyHvJNfOeqkCKxqzeDkKtNn5n2szpU3XaYMsWL3Kvwpq/QlmTbClWlfKwZRvX2yZrsYp0hUjyShmtEryGFnfpGq6I1aijlKkzUwjKgvoC3MTBOl0gUprPIGK1EA5i/9ISEtkdVPFwllACwiK8AAJLKMa7ILwZCooXISxzIcWackQIxBTa5T5jYJlWWKmPopuNUI6CcsJwZp1Y2YHy4EmCJwrhCXVzRS+EGOHFK4AzEzUoCMuGEA4EGIWEeVyLoRuzmSg0wseRsJfr4MYUN31wDeXzXEPXCYN4lxPC5HzPOwjBwQsvB96MD0XCsxE60Q/tMsGDIcBr1ivUZ3YVr8m4UoG6g0OK1HKq6uAHLkywADSBUhAKR2+EsSISQHmRA8aGkaA/aMYz8MpnUfUbXKEttGG8hOYuE+JVzLvgZ4SI987x7wk7q9/TU6mgVBNGj7QJI0stx1pte72SwvZWq9eAsXwszZs/50AbUVBkFevWW2lhkZWICQguisAAg2XokGCla5BivOdiVR72kDiPGT3W+8N910jwd0iZ6uUmmxXuZYhImVIsBN3dvAgqWol67ps0oOCtsDjkMAACgjWD6CgPYVBkFsAUNMxA6FhBwfs2lIdwCsFBiLGEMIDrZSPK/BkEH+BZ8goYTq5HLgetOKdfJiK4Bx5M7GyXASIP82fVDp7P8wj9RlHBA8bTF0pexktvGRvw4B54eVtKtLlPQs5v6M89lJT2qIsS8gIbj8nSncrKbY6Tv7xWv4zJDYboFgWPF/lAGB9CqdxVY0JwucZERLF4ygwa/cAn6AnOCCqCHHIbrP/OhYy+qcMYAseCcGM4UAIUNd7PVCQBH+mL3DUqD4rOffpHvuL4uc85JeClPnSkDmNhvIWFCv1FM87dYKpuwALcOAvjCFd2DrukVAw5XZ2OVT41Vm40VxpUpVCqRJa3TcJYVVFl+QrhDpi1n41WyFet/KlI1i9HhABxhJmXmRAmX3F5oRRqtMKN4qJCa5G1RIggMO9sshW/N8gCbpF1r7V2a5BCtUhf0qSUBRlZNm/+PGc2ROzoQKHCwleRXv8L+Q2/IjNaJXAIF89AvNSBI4gwAGJyHS+D0EF0iA2nCSOZYka4mluaxaxmS5OQZirsxUMxAxefZeqfvEys8L4A2sYAYFQcB/3GEyKY/pw/GzwsQk59+uc6isEYwJPfvspAv8UK93jUx9KCK/WowxFlg9bBEzZ732FWUILDw8IQ4QIH8KRPcGOSBmGM1wE16W3GMJp6hGm0BT4YQ/gXcaD5MK5wHAqwSgNFYtwoDTwAX8YKngA40id84AiPKeAJffCaYWKGeyxZwouFaXo8X7gWxsrzGBqa4ZpPv+sv0DPQ0f8SQz1U2Nl4A5e7IAwA99suTNo1MAbOO6ccPioUohCVMDFbTGaigsiY+axCMaNQ1h7CM6XJFDwWp6hYnkwxMFPvYRqZAYto6qpVxGmE6RBQXi2nQG3IIhHv8/J21MhRAa1+B6xryWUnngQMIXYlEUSiAgimE0I/PYxL7nONECiTmUZCCF5C80x4LBA9lYDxVF41/NGHitpiXLG/CD1/dbfH9a7Yvhd4f7Ge2gNPFJT2g9KGghDiuVCOIGwYguCZaDv0JZomypBayGf8NYfOyTGhDxBpB7hCJTgi9CiBnye4RaHUFb8+FMDopT4PbowNJQNv+scwo9gYC+oAjL1Jddxr6Q8yh8kNFYWH0MnbTepHYFyE67QT2gq07VN2M/RSKiBNXkkWTQLfKiZiFdKEfLYYJGcSkNMgWPOXJc3IU8lu1+CSdxtxRgYCENuT0DPBQdJLIs5EAC81a+WBqhX6Ve2otcqaattatc02lm+xKp0jII2NDUFAEqz6gNMjMCjCQHVd2PWf11WhHsrD1Lo3lDwYmc0l/+2Fv9Rz/dGWHgoltBWUWD+6AGsbLvRRNv3ueaUb4piCECRKJaGCFnhj6EphSjuUOg81KSFZb/Cwjz5owwVrkEL+6YZStMCq9wDo1Q9E/CKuQwVePaCcBTKeQHg+HKP3JpRmHCEMJlwN3pLnwDcC/SObeFuuu+dLaEXh3EFtB95082NPQy8qBkBI8FJ4K6wBZEvEL/wP3GQhsts6bJR8VUdFtRMFpAMRzL/PIfklAWcKHbdPeAIB+MyjnoWQ2Uq6RcAt2yqlWDU+a1e9vdaqpVgbN26y8q3l9Lh7ALx9ACkQr/V3TxckOv2U5E/GhNLPg7sNEHSEB6F3wRG9mO6mkH+FUmLDS0IhNyEMJwSPAo9ADaUEpu65sQBRqKGf9yf8uMR1lMNDVRkPAAXvfrkryosGrsgJPQK+IZSO765CyBgiBxRuZ6U7xNy90EOpaJ7CspdWDbIFBRGCeCiAyj51LuA6STQKsUPWEaWBObwziZMGzHTxRpx3DjAfoeCFpX8Dpfbdumhg7pE0OBbUEiJyjqWiDAmEkxMnhUCBcXsCYrsc91Qf3SC561KsmFdB457AuEOhPv+LSjXU8laMJULgUuwXtgXD3Run6D05IltUD141pCjhvughuvQA1evbVt+yp6CPp8L4tkjICQFbpM3kOyAQMwBCQU/SlYeUb6+xpVs22Lb2FttWXRViXtVlRm31qtX2+uvrfDqY2SSmdVGk+voGryfS+CJb8jGUlt8UEAqWU0cp39Aghl8QOhArfjpCDuWQonBvDewupgUBCIqFVe6erAAYM0PryjFUAh389t819BiDn3UDCsP9WJKrKecB4LOXv6Px9vz0A8RUMrPSraSs2OSrbHNluWUWFFiDmFWhXChfIcfW2lp7ZcVye27xK7Zk/Tqz3Bz/BoikP4QelmwIQ9iSbk0NddbZ3uqCTXJNEjp+9BjrVPi4ctVrtqOlyTqzFdvLc+VJaPLSM+UJOz1nwItJtwUhAEX1REUuODPgBp6Vc7fk6hNgKISxMAtG4PX4IpklREx7D+QFezOtf0gVgUA0x0VHBJ53K4QWwbt0262htd0N1HfD4AXBCUdK6C8RSPUVcEotQO9rA5eA2q7htych0qo3Xrsfw76KujPYWf0+31MBHR0sZJVXaVR4V1lhNUqCt1ZV2+vKc/gWapkUYemqVbZJ9+qkECUjRti0yVM8kc6QQgQrI2FvbfFP7AsL8oIgaAC8XMzPK7AxI0dZe2u78qda297WYo3qL5sZwwwlpJIR3pQjN8wODaRUDI7h8dKVd0muUHqGTzxIePFeeCrCJT4iZGYJb4nXTBoIxxQYCoG9XQm6CzSeQdc459lupQrTuW9KqVTAn5nUnJxcD7dDu5mOQ1CoBAch8UaKI+89Af5jyHju6nh2BWLb0M9PhSzYBYPit3YTvBGlSk4GgH6VCuK2y7Nsq6q0mtodVllVo/Pt1tDYYjvqG62+qcWaW0PelSElGFk20ubvP9cqtlZKCTp9IS17ADYr10IoyKXYKGbCpEm2995TbfaMmfJo+VKEIl+nNXGf6ZZbUuy5WVtLs6VjeBPMER79J+irVABKh0IhXP6yr00aqEdbmtn8I7z/oI2u6Vw949PmgvjbuRTPk34HBH+20wqHFYS1aPrtq8STNoJShST4TSuVqtMbS5cYA1/L4v2YtGCGlLuuVJw5Xm8A1AdY+egdPZ0NEc9dHc+uQGybo7/3zM/31SUsMsBgvuHx9oGhj3eo0M1xBxpPs3YlVg3NbdbUJgGxHGuzbGu1LOtMz1Y+lSNvxCYcTMfm+N592xtbrUCepyMv37Y1NFlNfbPlDyu1yVOm24jR46xDdfeZva+1dqZbY4taU728wmG215Qpdsi8+XbC0QvsnJNPsQOn7mOq4KsqEFIIx4DxfI4dg0/Gzz0EDQFmydHZZ53l77b8Ja68Um5ejkK9Yjv77DPt6GOO1LOdyu8qZO23J9POLInhvVSYCWpqapCCogy4xRhO9QPCoU1K9PGPn2q33fb/bNy48Qleu5cxQCBD+JydSR0W/d56660+s0pYHD3i7hOwtw/4xIaPE8PHiN1hL8D4P/ShE+1nP/uZ7bvffsl4E4PyNpdUOYnXeihVGAyeIENeSKKVnmOWlW/pWQXWyeaXaax5oxDioVRsiJlpdfIKxaySKB5uNTpfs2GjLV252pYrTFy97nUpUYGVb6u2CoWQpYR90ox0CYlvMvL6eqvT9eKsHCtSkbQ7UswuCsWA2ACAUjmo2pVXXmVf/OIX3TOSL/GpBV+nXnH55TZjxj4+9Yq1I59iTRmMoi5EYOU9+SDbr3EN6KMiEDAhGt6CMHbChIn+AnVXYSD1c+XsB2JuhmccN26sL9mJ3tAH/zYAmEbh9xk4lYi/C1aiFNAz3h8IWCXBJx8XX3yxLVx4Qhd9aI+CQWEZGXXgm0McNsfBSsC0/3sUIOHtkEtKA0GRQg4dr/VQKrf8utmue23yKm2dmdYuRWpjm2Ypk+ncpExprK6Q9+hMSqvq55eUWsm4cZYuwU3PybE6QjENplnamZtfaH956mkrliBmizi8m3rkiSfs9v/4d//Sk0W5vEjOUju8VE7I4OBo+kCSYzjV/W5rVqHc7s7f3ukrIz78kY/40ib2JjjxxBPtueefs3v/eK/Vbt/ujGU/CH+DrxCCVQUwjOl/X7qk0JVw0hUnmfAgX6FPhJgCjWA0R2YxuTYQJDLWFxCW5DQVolD2Bmdc0m/02vQPOTCCzrdB8HgjMBDqXaAKhGLxJTSGDDzC+0oWAXSv8OA+L3QjH3sDY6Aer2VYNwlEWvAM7cJneJUr2YrXnQA7AZ4jDB8Q1IbTdxfKzqD3Cw91Ar3QNhDRwCTsrCBI15FCk13N6oRzpt07lDdN2W+2rdu4wZY887xNLiu1zLpOGz96pK6ttyp5jgJ5iRWrV1qmBOPBh/9s22u32xHHHG0ZhXwAV2E1TE5ImF3ne3GVwURCu0jqP1c/tQVD7rvvPv+knZ16XnrpJfvoRz/iHwh+73vf888L+MSejVh8ga+e2bRpo+9zt3jxEvdk7NXwxBN/sQcfeMjbPuCAA+3SSy/1XZiee/ZZV7o4YCwmH20SPh5++GF2ztnneN7IqhE2S2FTEgSBz93ZBIYvbRH6pUuW6v4D/vKbr4rZhozP2/mSl089brnlFps6dYqdfPLHfDEt7/n4LOTuu+9yIY3eAI97ww03+GqVBx94wLaUl7vAnbhwoR151FH+Ofrq1audViT2fFvG/hWsUucVB/tMsALjrrvvFl077IMfPMFXnrOA9Ze/+lVYnSHDQ1h9lsJqwk08xAsvvGD/fscd/hUC2yKwp8fR4h9GjNUS999/v38awsJpxgawT8Sh6o+2+YT/d//1X65gLFGKgOBDH3JjzoFgNALPWSrHERxYMI0C86KbPT1OPfUTXp/XOOB3113/5ZvosI8ItL3v3nvdUFL/7HPOcdrBU/LS8847z3d3Qun5xOS3v/2tf1H8ZqGHCoM4ouMKpCMven1pUlKw3VxLLSgcn3OsL99s094z24784PGWoSS+XEr01F9ftIcee8xe37TZioaXKJxM91nDV5evsA2VlTblPbNs5N6TbUvddrv3kUds0bKllqZwql14MFPo0t0Dkt/JLd6yZ+ew1jDPv3+CqHycdv75nxXBj3QBZwelefPm2s03f8eOPXaBkt0y//iNXZOuuuoq3yNuosK4z15ygR00/yBfGT9u7HjfR+PQQw5xBSooLJDQxg/5slxgV65a6ecoHl8Ys17x0ksute/d8j0XRhT9kosvsdNPP8PzrkkTJ9uN/3yjhPRsFxxeiC845hjPI1BoNmThM382svTNWJSckxt+7nOfs6OPPias01N/hIDs6kQIyC5RrKSgPWiw4NhjfU8HPg2JgGCy2Ha+xnbyySf7Lkvklcd/4AP2ne98278iBl82rjz/ggucLmHypd33uwibr/A5e45vQnqeftMf+yx+7etf92/VMN7swfcP//APjgcFQ3HllVfalVdd6bSZN3++ff2662TsPtrlbSKI3d4f7YYwKuAdi3sqVfKiOtCADy+/8Y0bXFmog0G98cYb7aSTTnYlwRDwtTTb0cG7spFlilwW+v6KKNQ555ytvPjjTitW7V+gsV9zzTX+DvbNwoAtxAEBrJFjMLj2GB93FXkWFl8+JauwURZz+qzZ9omzz7Z2CcX0/ebY4QuOtSkzZ9mEvafYpq2V1qTYslpWcPz06XbEwhOtSIN/8pVX7LEXnrf6NoVXCi8VRNCrkEi0xwuoxvMA4Acz+J6J5VBscMLHeGd9+iybPHmy/eEPfxCB6+zc8z7luF522eUet5966in2b//2G5t76HybO3euf/re3tjqgkvIUlW1za0bS2IIFXm/BQ0wOjCEI0LGuzn2FDz1E6e6ct3wzRts1OhRyQ5Fmb5dGspy5hln+g5EG9ds8j3rwIVREH6ymcuHFKaysxPbcLGCH0H/8tVXq3zZN3phw0jer2HJWT1PKMt2Zmy1xsd4GIJZCnf5/d+//729JqXvplKajwta4e2+L899sZT95ptvlrB2qp2H7dOy2CjE3/72ihscDAl94oluuulbdvnlV9i1115rv//93f5VM2Nft26tb3xz0cUXqc5N8rLf9b0KEVDGh2JBuwsvvMg9whVXXOFeEkMwTAYh1VNhymOI1wOQPxVW3aB5fDOGV2TTGTzv448/7kYAb4pxgpYXXniht8XGPAdLsTEYhJcLJIdlZSPtd7/7nQzIe0TzD9m1UqKrpPTXy5BBZ/K5mTNmel8RpAVuZChoQ9CIwaFfpeJxVyr9uRjrfwwYz9BbsTKFMI2seW2NtcgisufaC3/9q9U2NdimbZW2XMRfV1Fhr22tsIekeKsl/LVqe7a8QIdCsTvvucceePwJ29HUYp1qq1Ptd6pDeg5H/ebcMeseLBCFHK+AW2dvB4gD4Pp514VATZ0y1V6R4rKRCOMqL9/qQllfXefun2cJCWEGDEcgfHmWcKFt6IDyIpSEHoRUQFV1tT3z9DNOaSze4+yAtGOHW0OeWbFiuVvDW753i11//fUu/Kzax+M4UbPTfNemDQqZ6Qtry+cLn/zkafbDH/3IfvKTn7jSYyCqqqr9ORaZomCMFQE74YSFokGG78cH3vcpBEP5aB/6ANEQsLnMmrVrXaA3suHNiFK1s8JX57PIeZMiCrwAfEW56Pf97z/ObvrWt+yrX/2qzT1wroeyLIjdrLrgcd111/tn9guOWeBDYnYOghCq8ck9Xz7zDOsVWRfKZyQYBoxXxM8f9EPyewCAP/AD70ShbRQXgNaEcEQeeHx+My68M1sMkGPzJTFfMrPXBxvxLJQxwyiyrQDpAZt9jhs/Tq2FT2ZwFv66BAangERoUOhXqSJET8WgGXBULD8mhU1c8oTMpPETbJnyk9/86td2+x3/bisVjj378kv2p8cfs0eefcbu0fGeJx63VVKqdgnXFlmdX//uLvvFnXfaynXrFRpmmgKARJEYRlAodZ4MCYLHEiB6qtXqa1jhMP9NDtJa36pwcLXH+TCBXaF4Qcw4nClSHEIrZp2wrCxM5fNzch1ic5QFL0W4AZMQVt/XQoRmVhGyIODkHigEHxnyMSKeh/Z5CU4ew6YxJ/gmkJm2XgzlXjRGEWA0HweisGz4ya5F5HaEss9KSG677TafSuY+AsSz0J39HMjd2F6NF8N4ieXLl7kwsfLckXT+ha+dMYbxm6UIdTvqXEmhqX8OorahIfkVY2Z5GdsOsF0aW639/r9/7zkqX+h+Rp7hK1+51kPftWvXOM3wCOGdYaBP/GA1LpTlOnIUDFjfT2V2BtGYBRqkOZ6EwXhrIgO+gBg2IvB2hVIMNuxkj5Bp06bblCl721NPPeV12JIAWuLpFi16xY933H67pwh/lUOI44AGGDl+u7yjA+DvWAwM/StV4EUyaBoi9MNLhcIAYmGAbElWUjDM1i1fbR1NrXbR+RdooOMtv5glTdtts8qW7Tssq2i4baqusWcWLbK777vfXpG1zR1eannFJdbeqWS1U2GAjr4TbaJQ3aUfEH4oFSso2CMCYI8DEmEYigJwn69qJ0+e5LE9wrlN4R3farH1FRuurJFSMhHBhiPUx0sxxc5n5xB1byW+CAkGhYXB5AT0h1ebs/8c31gGovMim3YRmAMPPND38CPxJ17/0Y9/7N6BHMTbUv1U4Fuwlco3Ifwf5b3Zx/Bf//VfPakmrMWbxtnG+GnEvUrCmYxhR1m2N3v00cc8f3KB9ZYC0Ffqt0ZQk3AmQiou3EMJ8ITQ6n8UQv/yl7+0X2kcP/j+Dzx8Qth4XcGEEGHdd797ixszFCau+sCrcISWEfy3jszG+axqCmB4ekNvvKOnApjEISLAI9IW28rxu6GmTjjUKVSsk8Is8r0az5cBYFMbDANjog127kWBfvIv/2K3S6F+duut9vOf3+ZfRwD0y3jAkiN9d4WBKoNBT84mwND9wcGfdUDhmFr98wMP2EuyruUKCwgJD5w7zyZMnGSlo0ZaMZujyCXnyJo3qW55pXIWIUrZ0dRoTRIWXqgSOndKsXpO/Q2gUICeh/CEFRDB3zWJOVgj9qcAf4TxsccedZdPKMZLxhMVT5+hxBrBXLZsqYdRrFrAox166CEKCxbacccfJ+8VPkdZqxAWphNKInB8al9SUurKQSI/dsxY32xzoUIxPN3dymsIB1FmJk7o88Mf+rAzEsUgFHJBbukUfsxGSqnU9v333+c51Ve/9jUpy0TfhJOJilOEN8IQhR8G860auL8kwTjLx9LsM28xoqBNB3goXmJhmdlyvuoc3KENFh/LjpdqaGxwOhKuMeNJePfJ00/3hJ/86hrlVeQw4EIZI1wJq5hNZIIEAactlIa+eMneW4TAK44jAkIecOYLX8mBrnEOLuCNIQFPUId2bLiDBz3mmGPcQ49W3gR+bDN3v/LYWvGMLRMIB9lwh+2qybWZ8SVsfOHFF618yxblipfbtOnTPMyFj0x+4HmZtDnwwAM8gon/Egs4dBkK/QaXPoNLoF+l2hWgC6Y8qxXz8yKX3X+YBHjk0Ud8s0pcZ628lL//EUEJ77D4mRKiNOUCLDlploDwPQ0Jqb9I428QpHsDxIehWBEEF6vJRiVM7aIEt99+h/3pT3/y2StmiCAmCsWGlex+hHfDG2DpfvzjH9kXlLzC/HzlDkxtw1AYD24oMEqIt0CB2ALsHz//j54zjVAYeNttP3fhfm31a57X0ecPf/hDn7xgY03GhuC4RxS+rOMjoEBhn332OXmnn7iQMrP1L8qpSOw3b9ns/ygBgsyefgg7z5ADPfDggy5UKyU0hH8wXhQR/kFIGQjhIHtM8B6P+1xGWNKzCUX5VCfPN0lFMRkbORdCSL5xpIT1Rz/6oejyY98GjrATwwC9ChQi/eAHP/ANTMEfIC9hAoQPJWkP5aU/DEyYMue1AHmyAnxuCPg/z0NT8jVXqOQewExonfiJsjLZsEJh79VXX+2b7DCDy6sIJlLYdern8jjsrkSUwSsTeEG7/KMHFRWVaivDr//yF7/waALvdMcdd/hkCvzFC7NtON6XfBvsoJmHnAle3Zj1DwP/m79DFGg6dQWQfvJSGFeMkEvVkkKiH5I9kOttpboBAQPp5FyCTEgGLq2ter4jhKGs/aN9wKvqAQSU/d5QlCqFZeRK/HtVWM3h8j6EgQAMx3PgyVASCMRkBlaNNgmlmPkjZ6ANVtRjcTEIEBvcEBTGgBKHN/zsKa9wU8pLYssYYSLCiRCR+LMBJb8JjRDE+jrWUTZ6PlfMqn8JKgaAHIZnYigUjkEJwXWkvD2GI+6xToTAbOYXv/QlF67//M//dDyj1Q/T02EFCNcpIXTkH3oLuSI7KIEXgo4CsE8e0/QsF6IP6IF1574rlAQZBSDcwmAxXvIT2ojej30Y445NTG/HMZHXEpqGcQXeUuJkA68ZaJPfQQaDLPEbz80EE3xBMQGUnz6jF0HoEcUQUbSET4d0jU15yI3BH37xGwPFs6QEbJZDv0xwcIRGvIiGBowLpxEXAwCO2yAw+D+kPfizXeAhm4t4LDzKH4MKjB1KY9IhEVFFR7wDR5S0rQ0PFpUqqSCITKGgJNGiQCwUDAYSyhCGYO1iYus7IiXCAMNhCsoFgZncCH2HWU7aJaQEe9pEkAnV6AMhoR7KGgQlJNHgg1DTrmOanDNZwHXWHVInCj8lCgftwEgYzG9mrtSA2mWPu7BpJ/URDN6vfVOeFxz5RxHYoZWxgYM6cM8P3Rk7+4bgYegXrxGTb2iEF8BIBFSD14Q2KB1Ae9TnBS4GBrzA1++pDXaRRfEQxsiPGOLitWiPdnmOSQJeCSC8QKzPfcItjA+8ifdoA7oTnmK0dNE9LjSBl/TPP5KBVwFnlAV8UQTGP0ahOZGIX9NYmdShHjSG99SP15nAwmiBO8rHc4wTPJymCfAbug4EPff908CA8JCOIsjQAe+EFiQ/eSvsPwKBHGg36aM/8H++J5yEc5rTIzBGF/UjCKDfSCDi7IxG4ETknUPELRXEXPXjd9QpBWKHfnU16YfEm5myeC1d3tnDGRfg8Cw4IAzgxG8UAUGB0fTgIS7PCxx/nWMJwzj5iWdKvLHuI8wIHCEcCsRqbaaK+VcjxykHIAQjvA0CGDxE3NaA/tyC6wfXaS94vjAEroEb1x0nXWekfupD1hh5Tvyl7+RiD6Cv8DlKoBf1geg5vD0udDUar3LJ73RBeDZc4x50oF8MXaQP5/H53oCSeR96NnVSgXajjDhf/GqAqMTRsEUIPO2mXYTQZmoLPaHHpx9RQLtg4Of6gaAQ8d+1CsPmmPKniym/ev0BVNB5gkeYBQT0WwrlT/sh3OcpCBw34cciY1EIOfSw13FhHmJBqSIjnHDJ+MGHLv2o/rDaXXW4wbnqedF5wE6Q1OkSWAHVw5GTQB//L1GiCKHPpIih9IsnYDUEY+RfKSEPZTdbZrUIcbmOVw59xPYjZuH/EY94v+tnD0itA6iey1f83RO4GsYDvvG8u5V+uxgEwLEbr3ASuw7t96RVb/Dnk2OEHufJMRVC+0knvSDyIcJgdYG+4V/yKxWJtwPCIPoy3S+nDBDgF+93iOcJNchveA5B5K8PdHnR/sGZglVMcIgE5cg9lNd3gfW2k8J/vfDqDYGm3X3vrH4E8oG4Xx5hE9P8TARw7riqEMrw1TWbkPIPmVM3ta+ekOA8ZIj1d+WZdz5087Mn9FQqnYWKf4cgfg5VCIGoAPpfciUVuNbf9eBbu56jPx1T++UpFJclNwhyvOfqO1T0XKl3DcJ4YjjSHR46CEc8LPlU9woASjzvDSA6VGSBWH9Xnnnnw5CUKggT/yVhyd8TCJ2hKhX1ghD2HXAArg90L7yYJMnt7q37DNrQLsWv0lfXcQj4Jbni0IB+vGkB/wNnHbsvJqDf+o9VH+QdQfmoG3KnvsDFfm8MALH+rjzzzoSBFCkVeganLixiiB8Hf/CdCYnQ6BAUpKcgiSo96LKnKYQ3CglywCEqbd/JGF2X9oAaxoRn4gym3+u3vAt7CnpwByZ0l/+7hEfwmXhwKRsQegvZLoxX7dLHrpaohuF85xCfgxUUnooeOHrjrpLU7+7DD4I4ttTyLuxJ6G3y3lHgIpYIZs8ShK7/ov8B/cgiout/EuL4KYgf8QwINt5hkKIHvCGe2xWIuIXzcNJzPCp+NdaNv96FtwPe0Ur1ZqDLA6QU6UMofl/E8+uuJn6hv2f6lvD8u/B/EwL/BmOi2f8CunSI7zOUh2wAAAAASUVORK5CYII=;" vertex="1" parent="1">
          <mxGeometry width="213" height="50" as="geometry" />
        </mxCell>
      </root>
    </mxGraphModel>
  </diagram>
</mxfile>
